<svg width="12" height="12" viewBox="0 0 12 12" fill="none" xmlns="http://www.w3.org/2000/svg">
<path d="M2 4.5C2 3.08579 2 2.37868 2.43934 1.93934C2.87868 1.5 3.58579 1.5 5 1.5H7C8.4142 1.5 9.1213 1.5 9.56065 1.93934C10 2.37868 10 3.08579 10 4.5V7.9138C10 9.25545 10 9.92625 9.57785 10.1314C9.1557 10.3366 8.62825 9.9222 7.57325 9.0933L7.23565 8.828C6.64245 8.36195 6.34585 8.1289 6 8.1289C5.65415 8.1289 5.35755 8.36195 4.76436 8.828L4.42673 9.0933C3.37178 9.9222 2.84429 10.3366 2.42214 10.1314C2 9.92625 2 9.25545 2 7.9138V4.5Z" fill="#61707D" stroke="#61707D" stroke-width="2"/>
</svg>
