<svg width="12" height="12" viewBox="0 0 12 12" fill="none" xmlns="http://www.w3.org/2000/svg">
<path d="M2.2252 6.95414L5.70151 10.2198C5.82126 10.3322 5.88111 10.3885 5.95171 10.4023C5.98351 10.4086 6.01621 10.4086 6.04801 10.4023C6.11861 10.3885 6.17846 10.3322 6.29821 10.2198L9.77451 6.95414C10.7526 6.03534 10.8714 4.52334 10.0488 3.46307L9.89411 3.26371C8.91001 1.99533 6.93466 2.20804 6.24321 3.65686C6.14551 3.86152 5.85421 3.86152 5.75651 3.65686C5.06506 2.20804 3.08972 1.99533 2.10563 3.26371L1.95096 3.46307C1.12834 4.52334 1.24711 6.03534 2.2252 6.95414Z" fill="#61707D" stroke="#61707D" stroke-width="2"/>
</svg>
