<svg width="12" height="12" viewBox="0 0 12 12" fill="none" xmlns="http://www.w3.org/2000/svg">
<g clip-path="url(#clip0_875_37)">
<path d="M3.0001 5.4001C2.44212 5.4001 2.16312 5.4001 1.93422 5.46143C1.31306 5.62787 0.82787 6.11308 0.66143 6.7342C0.600098 6.9631 0.600098 7.2421 0.600098 7.8001V8.5201C0.600098 9.52822 0.600098 10.0322 0.796286 10.4173C0.968858 10.756 1.24422 11.0313 1.58292 11.2039C1.96795 11.4001 2.472 11.4001 3.4801 11.4001H8.5201C9.52822 11.4001 10.0322 11.4001 10.4173 11.2039C10.756 11.0313 11.0313 10.756 11.2039 10.4173C11.4001 10.0322 11.4001 9.52822 11.4001 8.5201V7.8001C11.4001 7.2421 11.4001 6.9631 11.3388 6.7342C11.1723 6.11308 10.6871 5.62787 10.066 5.46143C9.8371 5.4001 9.5581 5.4001 9.0001 5.4001M8.4001 3.0001L6.0001 0.600098M6.0001 0.600098L3.6001 3.0001M6.0001 0.600098V7.8001" stroke="#61707D" stroke-width="2" stroke-linecap="round" stroke-linejoin="round"/>
</g>
<defs>
<clipPath id="clip0_875_37">
<rect width="12" height="12" fill="white"/>
</clipPath>
</defs>
</svg>
