<svg width="136" height="28" viewBox="0 0 136 28" fill="none" xmlns="http://www.w3.org/2000/svg">
<rect x="0.5" y="0.5" width="135" height="27" rx="13.5" stroke="#FDFFFC"/>
<path d="M42.6367 18H41.4844V13.4688C41.4844 13.0977 41.5072 12.6436 41.5527 12.1064H41.5332C41.4616 12.4124 41.3981 12.6322 41.3428 12.7656L39.2529 18H38.4521L36.3574 12.8047C36.2988 12.6517 36.237 12.4189 36.1719 12.1064H36.1523C36.1784 12.3864 36.1914 12.8438 36.1914 13.4785V18H35.1172V10.998H36.7529L38.5938 15.6611C38.7337 16.0192 38.8249 16.2861 38.8672 16.4619H38.8916C39.012 16.0941 39.1097 15.8206 39.1846 15.6416L41.0596 10.998H42.6367V18ZM46.4551 18.1172C45.6836 18.1172 45.0667 17.8844 44.6045 17.4189C44.1455 16.9502 43.916 16.3301 43.916 15.5586C43.916 14.7188 44.1553 14.0628 44.6338 13.5908C45.1156 13.1188 45.7633 12.8828 46.5771 12.8828C47.3584 12.8828 47.9671 13.1123 48.4033 13.5713C48.8395 14.0303 49.0576 14.6667 49.0576 15.4805C49.0576 16.278 48.8216 16.9176 48.3496 17.3994C47.8809 17.8779 47.2493 18.1172 46.4551 18.1172ZM46.5088 13.7861C46.0661 13.7861 45.7161 13.9408 45.459 14.25C45.2018 14.5592 45.0732 14.9857 45.0732 15.5293C45.0732 16.0534 45.2035 16.4668 45.4639 16.7695C45.7243 17.069 46.0726 17.2188 46.5088 17.2188C46.9548 17.2188 47.2965 17.0706 47.5342 16.7744C47.7751 16.4782 47.8955 16.0566 47.8955 15.5098C47.8955 14.9596 47.7751 14.5348 47.5342 14.2354C47.2965 13.9359 46.9548 13.7861 46.5088 13.7861ZM53.1152 14.0791C52.9785 13.9717 52.7816 13.918 52.5244 13.918C52.1891 13.918 51.9092 14.0693 51.6846 14.3721C51.46 14.6748 51.3477 15.0866 51.3477 15.6074V18H50.2148V13H51.3477V14.0303H51.3672C51.4779 13.6787 51.6471 13.4053 51.875 13.21C52.1061 13.0114 52.3633 12.9121 52.6465 12.9121C52.8516 12.9121 53.0078 12.943 53.1152 13.0049V14.0791ZM58.0615 15.8076H54.6533C54.6663 16.2699 54.8079 16.6263 55.0781 16.877C55.3516 17.1276 55.7259 17.2529 56.2012 17.2529C56.735 17.2529 57.2249 17.0934 57.6709 16.7744V17.6875C57.2152 17.974 56.613 18.1172 55.8643 18.1172C55.1286 18.1172 54.5508 17.891 54.1309 17.4385C53.7142 16.9827 53.5059 16.3431 53.5059 15.5195C53.5059 14.7415 53.7354 14.1084 54.1943 13.6201C54.6566 13.1286 55.2295 12.8828 55.9131 12.8828C56.5967 12.8828 57.1257 13.1025 57.5 13.542C57.8743 13.9814 58.0615 14.5918 58.0615 15.373V15.8076ZM56.9678 15.0068C56.9645 14.5999 56.8685 14.2842 56.6797 14.0596C56.4909 13.8317 56.2305 13.7178 55.8984 13.7178C55.5729 13.7178 55.2962 13.8366 55.0684 14.0742C54.8438 14.3118 54.7054 14.6227 54.6533 15.0068H56.9678ZM65.7324 18H64.6338V17.2188H64.6143C64.2692 17.8177 63.763 18.1172 63.0957 18.1172C62.6042 18.1172 62.2184 17.9837 61.9385 17.7168C61.6618 17.4499 61.5234 17.0967 61.5234 16.6572C61.5234 15.7132 62.0671 15.1631 63.1543 15.0068L64.6387 14.7969C64.6387 14.084 64.3001 13.7275 63.623 13.7275C63.0273 13.7275 62.4902 13.9326 62.0117 14.3428V13.3516C62.5391 13.0391 63.1478 12.8828 63.8379 12.8828C65.1009 12.8828 65.7324 13.5046 65.7324 14.748V18ZM64.6387 15.5439L63.5889 15.6904C63.2633 15.7327 63.0176 15.8125 62.8516 15.9297C62.6888 16.0436 62.6074 16.2454 62.6074 16.5352C62.6074 16.7467 62.6823 16.9209 62.832 17.0576C62.985 17.1911 63.1885 17.2578 63.4424 17.2578C63.7874 17.2578 64.0723 17.1374 64.2969 16.8965C64.5247 16.6523 64.6387 16.3464 64.6387 15.9785V15.5439ZM68.2715 17.2773H68.252V18H67.1191V10.5977H68.252V13.8789H68.2715C68.6589 13.2148 69.2253 12.8828 69.9707 12.8828C70.6022 12.8828 71.0954 13.1074 71.4502 13.5566C71.8083 14.0026 71.9873 14.6016 71.9873 15.3535C71.9873 16.1901 71.7871 16.8607 71.3867 17.3652C70.9863 17.8665 70.4395 18.1172 69.7461 18.1172C69.0951 18.1172 68.6035 17.8372 68.2715 17.2773ZM68.2422 15.29V15.9102C68.2422 16.2747 68.3577 16.584 68.5889 16.8379C68.8232 17.0918 69.1195 17.2188 69.4775 17.2188C69.8975 17.2188 70.2262 17.056 70.4639 16.7305C70.7048 16.4017 70.8252 15.9443 70.8252 15.3584C70.8252 14.8669 70.7129 14.4827 70.4883 14.2061C70.2669 13.9261 69.9658 13.7861 69.585 13.7861C69.1813 13.7861 68.8558 13.9294 68.6084 14.2158C68.3643 14.5023 68.2422 14.8604 68.2422 15.29ZM75.3613 18.1172C74.5898 18.1172 73.973 17.8844 73.5107 17.4189C73.0518 16.9502 72.8223 16.3301 72.8223 15.5586C72.8223 14.7188 73.0615 14.0628 73.54 13.5908C74.0218 13.1188 74.6696 12.8828 75.4834 12.8828C76.2646 12.8828 76.8734 13.1123 77.3096 13.5713C77.7458 14.0303 77.9639 14.6667 77.9639 15.4805C77.9639 16.278 77.7279 16.9176 77.2559 17.3994C76.7871 17.8779 76.1556 18.1172 75.3613 18.1172ZM75.415 13.7861C74.9723 13.7861 74.6224 13.9408 74.3652 14.25C74.1081 14.5592 73.9795 14.9857 73.9795 15.5293C73.9795 16.0534 74.1097 16.4668 74.3701 16.7695C74.6305 17.069 74.9788 17.2188 75.415 17.2188C75.861 17.2188 76.2028 17.0706 76.4404 16.7744C76.6813 16.4782 76.8018 16.0566 76.8018 15.5098C76.8018 14.9596 76.6813 14.5348 76.4404 14.2354C76.2028 13.9359 75.861 13.7861 75.415 13.7861ZM83.4814 18H82.3486V17.209H82.3291C82.0003 17.8145 81.4893 18.1172 80.7959 18.1172C79.6143 18.1172 79.0234 17.4076 79.0234 15.9883V13H80.1562V15.8711C80.1562 16.7695 80.5029 17.2188 81.1963 17.2188C81.5316 17.2188 81.8066 17.0951 82.0215 16.8477C82.2396 16.6003 82.3486 16.2764 82.3486 15.876V13H83.4814V18ZM87.5977 17.9463C87.3763 18.057 87.085 18.1123 86.7236 18.1123C85.7536 18.1123 85.2686 17.6468 85.2686 16.7158V13.8887H84.4336V13H85.2686V11.8428L86.4014 11.5205V13H87.5977V13.8887H86.4014V16.3887C86.4014 16.6849 86.4551 16.8965 86.5625 17.0234C86.6699 17.1504 86.849 17.2139 87.0996 17.2139C87.2917 17.2139 87.4577 17.1585 87.5977 17.0479V17.9463ZM95.6885 18H94.5557V17.209H94.5361C94.2074 17.8145 93.6963 18.1172 93.0029 18.1172C91.8213 18.1172 91.2305 17.4076 91.2305 15.9883V13H92.3633V15.8711C92.3633 16.7695 92.71 17.2188 93.4033 17.2188C93.7386 17.2188 94.0137 17.0951 94.2285 16.8477C94.4466 16.6003 94.5557 16.2764 94.5557 15.876V13H95.6885V18ZM96.8555 17.8438V16.7939C97.2786 17.1162 97.7458 17.2773 98.2568 17.2773C98.9404 17.2773 99.2822 17.0755 99.2822 16.6719C99.2822 16.5579 99.2529 16.4619 99.1943 16.3838C99.1357 16.3024 99.056 16.2308 98.9551 16.1689C98.8574 16.1071 98.7402 16.0518 98.6035 16.0029C98.4701 15.9541 98.3203 15.8988 98.1543 15.8369C97.9492 15.7555 97.7637 15.6693 97.5977 15.5781C97.4349 15.487 97.2982 15.3844 97.1875 15.2705C97.0801 15.1533 96.9987 15.0215 96.9434 14.875C96.888 14.7285 96.8604 14.5576 96.8604 14.3623C96.8604 14.1214 96.9173 13.9098 97.0312 13.7275C97.1452 13.542 97.2982 13.3874 97.4902 13.2637C97.6823 13.1367 97.9004 13.0423 98.1445 12.9805C98.3887 12.9154 98.641 12.8828 98.9014 12.8828C99.3636 12.8828 99.777 12.9528 100.142 13.0928V14.084C99.79 13.8431 99.3864 13.7227 98.9307 13.7227C98.7874 13.7227 98.6572 13.7373 98.54 13.7666C98.4261 13.7959 98.3285 13.8366 98.2471 13.8887C98.1657 13.9408 98.1022 14.0042 98.0566 14.0791C98.0111 14.1507 97.9883 14.2305 97.9883 14.3184C97.9883 14.4258 98.0111 14.5169 98.0566 14.5918C98.1022 14.6667 98.1689 14.7334 98.2568 14.792C98.348 14.8473 98.4554 14.8994 98.5791 14.9482C98.7061 14.9938 98.8509 15.0443 99.0137 15.0996C99.2285 15.1875 99.4206 15.277 99.5898 15.3682C99.7624 15.4593 99.9089 15.5635 100.029 15.6807C100.15 15.7946 100.243 15.9281 100.308 16.0811C100.373 16.2308 100.405 16.4098 100.405 16.6182C100.405 16.8721 100.347 17.0934 100.229 17.2822C100.112 17.471 99.9561 17.6273 99.7607 17.751C99.5654 17.8747 99.3392 17.9658 99.082 18.0244C98.8281 18.0863 98.5596 18.1172 98.2764 18.1172C97.7295 18.1172 97.2559 18.026 96.8555 17.8438Z" fill="white"/>
</svg>
