<svg width="136" height="28" viewBox="0 0 136 28" fill="none" xmlns="http://www.w3.org/2000/svg">
<rect x="0.5" y="0.5" width="135" height="27" rx="13.5" stroke="#FDFFFC"/>
<path d="M38.1641 19H36.7812V13.5625C36.7812 13.1172 36.8086 12.5723 36.8633 11.9277H36.8398C36.7539 12.2949 36.6777 12.5586 36.6113 12.7188L34.1035 19H33.1426L30.6289 12.7656C30.5586 12.582 30.4844 12.3027 30.4062 11.9277H30.3828C30.4141 12.2637 30.4297 12.8125 30.4297 13.5742V19H29.1406V10.5977H31.1035L33.3125 16.1934C33.4805 16.623 33.5898 16.9434 33.6406 17.1543H33.6699C33.8145 16.7129 33.9316 16.3848 34.0215 16.1699L36.2715 10.5977H38.1641V19ZM42.7461 19.1406C41.8203 19.1406 41.0801 18.8613 40.5254 18.3027C39.9746 17.7402 39.6992 16.9961 39.6992 16.0703C39.6992 15.0625 39.9863 14.2754 40.5605 13.709C41.1387 13.1426 41.916 12.8594 42.8926 12.8594C43.8301 12.8594 44.5605 13.1348 45.084 13.6855C45.6074 14.2363 45.8691 15 45.8691 15.9766C45.8691 16.9336 45.5859 17.7012 45.0195 18.2793C44.457 18.8535 43.6992 19.1406 42.7461 19.1406ZM42.8105 13.9434C42.2793 13.9434 41.8594 14.1289 41.5508 14.5C41.2422 14.8711 41.0879 15.3828 41.0879 16.0352C41.0879 16.6641 41.2441 17.1602 41.5566 17.5234C41.8691 17.8828 42.2871 18.0625 42.8105 18.0625C43.3457 18.0625 43.7559 17.8848 44.041 17.5293C44.3301 17.1738 44.4746 16.668 44.4746 16.0117C44.4746 15.3516 44.3301 14.8418 44.041 14.4824C43.7559 14.123 43.3457 13.9434 42.8105 13.9434ZM50.7383 14.2949C50.5742 14.166 50.3379 14.1016 50.0293 14.1016C49.627 14.1016 49.291 14.2832 49.0215 14.6465C48.752 15.0098 48.6172 15.5039 48.6172 16.1289V19H47.2578V13H48.6172V14.2363H48.6406C48.7734 13.8145 48.9766 13.4863 49.25 13.252C49.5273 13.0137 49.8359 12.8945 50.1758 12.8945C50.4219 12.8945 50.6094 12.9316 50.7383 13.0059V14.2949ZM56.6738 16.3691H52.584C52.5996 16.9238 52.7695 17.3516 53.0938 17.6523C53.4219 17.9531 53.8711 18.1035 54.4414 18.1035C55.082 18.1035 55.6699 17.9121 56.2051 17.5293V18.625C55.6582 18.9688 54.9355 19.1406 54.0371 19.1406C53.1543 19.1406 52.4609 18.8691 51.957 18.3262C51.457 17.7793 51.207 17.0117 51.207 16.0234C51.207 15.0898 51.4824 14.3301 52.0332 13.7441C52.5879 13.1543 53.2754 12.8594 54.0957 12.8594C54.916 12.8594 55.5508 13.123 56 13.6504C56.4492 14.1777 56.6738 14.9102 56.6738 15.8477V16.3691ZM55.3613 15.4082C55.3574 14.9199 55.2422 14.541 55.0156 14.2715C54.7891 13.998 54.4766 13.8613 54.0781 13.8613C53.6875 13.8613 53.3555 14.0039 53.082 14.2891C52.8125 14.5742 52.6465 14.9473 52.584 15.4082H55.3613ZM65.8789 19H64.5605V18.0625H64.5371C64.123 18.7812 63.5156 19.1406 62.7148 19.1406C62.125 19.1406 61.6621 18.9805 61.3262 18.6602C60.9941 18.3398 60.8281 17.916 60.8281 17.3887C60.8281 16.2559 61.4805 15.5957 62.7852 15.4082L64.5664 15.1562C64.5664 14.3008 64.1602 13.873 63.3477 13.873C62.6328 13.873 61.9883 14.1191 61.4141 14.6113V13.4219C62.0469 13.0469 62.7773 12.8594 63.6055 12.8594C65.1211 12.8594 65.8789 13.6055 65.8789 15.0977V19ZM64.5664 16.0527L63.3066 16.2285C62.916 16.2793 62.6211 16.375 62.4219 16.5156C62.2266 16.6523 62.1289 16.8945 62.1289 17.2422C62.1289 17.4961 62.2188 17.7051 62.3984 17.8691C62.582 18.0293 62.8262 18.1094 63.1309 18.1094C63.5449 18.1094 63.8867 17.9648 64.1562 17.6758C64.4297 17.3828 64.5664 17.0156 64.5664 16.5742V16.0527ZM68.9258 18.1328H68.9023V19H67.543V10.1172H68.9023V14.0547H68.9258C69.3906 13.2578 70.0703 12.8594 70.9648 12.8594C71.7227 12.8594 72.3145 13.1289 72.7402 13.668C73.1699 14.2031 73.3848 14.9219 73.3848 15.8242C73.3848 16.8281 73.1445 17.6328 72.6641 18.2383C72.1836 18.8398 71.5273 19.1406 70.6953 19.1406C69.9141 19.1406 69.3242 18.8047 68.9258 18.1328ZM68.8906 15.748V16.4922C68.8906 16.9297 69.0293 17.3008 69.3066 17.6055C69.5879 17.9102 69.9434 18.0625 70.373 18.0625C70.877 18.0625 71.2715 17.8672 71.5566 17.4766C71.8457 17.082 71.9902 16.5332 71.9902 15.8301C71.9902 15.2402 71.8555 14.7793 71.5859 14.4473C71.3203 14.1113 70.959 13.9434 70.502 13.9434C70.0176 13.9434 69.627 14.1152 69.3301 14.459C69.0371 14.8027 68.8906 15.2324 68.8906 15.748ZM77.4336 19.1406C76.5078 19.1406 75.7676 18.8613 75.2129 18.3027C74.6621 17.7402 74.3867 16.9961 74.3867 16.0703C74.3867 15.0625 74.6738 14.2754 75.248 13.709C75.8262 13.1426 76.6035 12.8594 77.5801 12.8594C78.5176 12.8594 79.248 13.1348 79.7715 13.6855C80.2949 14.2363 80.5566 15 80.5566 15.9766C80.5566 16.9336 80.2734 17.7012 79.707 18.2793C79.1445 18.8535 78.3867 19.1406 77.4336 19.1406ZM77.498 13.9434C76.9668 13.9434 76.5469 14.1289 76.2383 14.5C75.9297 14.8711 75.7754 15.3828 75.7754 16.0352C75.7754 16.6641 75.9316 17.1602 76.2441 17.5234C76.5566 17.8828 76.9746 18.0625 77.498 18.0625C78.0332 18.0625 78.4434 17.8848 78.7285 17.5293C79.0176 17.1738 79.1621 16.668 79.1621 16.0117C79.1621 15.3516 79.0176 14.8418 78.7285 14.4824C78.4434 14.123 78.0332 13.9434 77.498 13.9434ZM87.1777 19H85.8184V18.0508H85.7949C85.4004 18.7773 84.7871 19.1406 83.9551 19.1406C82.5371 19.1406 81.8281 18.2891 81.8281 16.5859V13H83.1875V16.4453C83.1875 17.5234 83.6035 18.0625 84.4355 18.0625C84.8379 18.0625 85.168 17.9141 85.4258 17.6172C85.6875 17.3203 85.8184 16.9316 85.8184 16.4512V13H87.1777V19ZM92.1172 18.9355C91.8516 19.0684 91.502 19.1348 91.0684 19.1348C89.9043 19.1348 89.3223 18.5762 89.3223 17.459V14.0664H88.3203V13H89.3223V11.6113L90.6816 11.2246V13H92.1172V14.0664H90.6816V17.0664C90.6816 17.4219 90.7461 17.6758 90.875 17.8281C91.0039 17.9805 91.2188 18.0566 91.5195 18.0566C91.75 18.0566 91.9492 17.9902 92.1172 17.8574V18.9355ZM101.826 19H100.467V18.0508H100.443C100.049 18.7773 99.4355 19.1406 98.6035 19.1406C97.1855 19.1406 96.4766 18.2891 96.4766 16.5859V13H97.8359V16.4453C97.8359 17.5234 98.252 18.0625 99.084 18.0625C99.4863 18.0625 99.8164 17.9141 100.074 17.6172C100.336 17.3203 100.467 16.9316 100.467 16.4512V13H101.826V19ZM103.227 18.8125V17.5527C103.734 17.9395 104.295 18.1328 104.908 18.1328C105.729 18.1328 106.139 17.8906 106.139 17.4062C106.139 17.2695 106.104 17.1543 106.033 17.0605C105.963 16.9629 105.867 16.877 105.746 16.8027C105.629 16.7285 105.488 16.6621 105.324 16.6035C105.164 16.5449 104.984 16.4785 104.785 16.4043C104.539 16.3066 104.316 16.2031 104.117 16.0938C103.922 15.9844 103.758 15.8613 103.625 15.7246C103.496 15.584 103.398 15.4258 103.332 15.25C103.266 15.0742 103.232 14.8691 103.232 14.6348C103.232 14.3457 103.301 14.0918 103.438 13.873C103.574 13.6504 103.758 13.4648 103.988 13.3164C104.219 13.1641 104.48 13.0508 104.773 12.9766C105.066 12.8984 105.369 12.8594 105.682 12.8594C106.236 12.8594 106.732 12.9434 107.17 13.1113V14.3008C106.748 14.0117 106.264 13.8672 105.717 13.8672C105.545 13.8672 105.389 13.8848 105.248 13.9199C105.111 13.9551 104.994 14.0039 104.896 14.0664C104.799 14.1289 104.723 14.2051 104.668 14.2949C104.613 14.3809 104.586 14.4766 104.586 14.582C104.586 14.7109 104.613 14.8203 104.668 14.9102C104.723 15 104.803 15.0801 104.908 15.1504C105.018 15.2168 105.146 15.2793 105.295 15.3379C105.447 15.3926 105.621 15.4531 105.816 15.5195C106.074 15.625 106.305 15.7324 106.508 15.8418C106.715 15.9512 106.891 16.0762 107.035 16.2168C107.18 16.3535 107.291 16.5137 107.369 16.6973C107.447 16.877 107.486 17.0918 107.486 17.3418C107.486 17.6465 107.416 17.9121 107.275 18.1387C107.135 18.3652 106.947 18.5527 106.713 18.7012C106.479 18.8496 106.207 18.959 105.898 19.0293C105.594 19.1035 105.271 19.1406 104.932 19.1406C104.275 19.1406 103.707 19.0312 103.227 18.8125Z" fill="white"/>
</svg>
